HIERARCHY
ROOT Hips
{
  OFFSET 43.0842 91.1655 101.099
  CHANNELS 6 Xposition Yposition Zposition Zrotation Xrotation Yrotation
  JOINT LeftUpLeg
  {
    OFFSET 8.64259 1.95398 -2.38835
    CHANNELS 3 Zrotation Xrotation Yrotation
    JOINT LeftLeg
    {
      OFFSET 43.7702 0 0
      CHANNELS 3 Zrotation Xrotation Yrotation
      JOINT LeftFoot
      {
        OFFSET 40.6238 0 0
        CHANNELS 3 Zrotation Xrotation Yrotation
        JOINT LeftToeBase
        {
          OFFSET 12.7242 0 0
          CHANNELS 3 Zrotation Xrotation Yrotation
          End Site
          {
            OFFSET 0 0 0
          }
        }
      }
    }
  }
  JOINT RightUpLeg
  {
    OFFSET -8.2249 1.95398 -2.59336
    CHANNELS 3 Zrotation Xrotation Yrotation
    JOINT RightLeg
    {
      OFFSET 43.5653 0 0
      CHANNELS 3 Zrotation Xrotation Yrotation
      JOINT RightFoot
      {
        OFFSET 40.6238 0 0
        CHANNELS 3 Zrotation Xrotation Yrotation
        JOINT RightToeBase
        {
          OFFSET 12.7242 0 0
          CHANNELS 3 Zrotation Xrotation Yrotation
          End Site
          {
            OFFSET 0 0 0
          }
        }
      }
    }
  }
  JOINT Spine
  {
    OFFSET 0.165834 0.87714 6.61349
    CHANNELS 3 Zrotation Xrotation Yrotation
    JOINT Spine1
    {
      OFFSET 7.38963 1.71661e-005 0
      CHANNELS 3 Zrotation Xrotation Yrotation
      JOINT Spine2
      {
        OFFSET 11.9445 1.14441e-005 0
        CHANNELS 3 Zrotation Xrotation Yrotation
        JOINT Spine3
        {
          OFFSET 14.7254 4.19617e-005 0
          CHANNELS 3 Zrotation Xrotation Yrotation
          JOINT Spine4
          {
            OFFSET 10.9679 0 0
            CHANNELS 3 Zrotation Xrotation Yrotation
            JOINT RightShoulder
            {
              OFFSET 2.46616 -1.6653 3.69651
              CHANNELS 3 Zrotation Xrotation Yrotation
              JOINT RightArm
              {
                OFFSET 13.0012 0 0
                CHANNELS 3 Zrotation Xrotation Yrotation
                JOINT RightForeArm
                {
                  OFFSET 28.7848 1.52588e-005 0
                  CHANNELS 3 Zrotation Xrotation Yrotation
                  JOINT RightHand
                  {
                    OFFSET 26.5688 1.52588e-005 0
                    CHANNELS 3 Zrotation Xrotation Yrotation
                    End Site
                    {
                      OFFSET 0 0 0
                    }
                  }
                }
              }
            }
            JOINT LeftShoulder
            {
              OFFSET 2.38034 -1.29275 -3.7523
              CHANNELS 3 Zrotation Xrotation Yrotation
              JOINT LeftArm
              {
                OFFSET 16.3182 6.10351e-005 0
                CHANNELS 3 Zrotation Xrotation Yrotation
                JOINT LeftForeArm
                {
                  OFFSET 27.0901 0 0
                  CHANNELS 3 Zrotation Xrotation Yrotation
                  JOINT LeftHand
                  {
                    OFFSET 24.5451 1.52588e-005 0
                    CHANNELS 3 Zrotation Xrotation Yrotation
                    End Site
                    {
                      OFFSET 0 0 0
                    }
                  }
                }
              }
            }
            JOINT Neck
            {
              OFFSET 5.0226 -0.0266342 0
              CHANNELS 3 Zrotation Xrotation Yrotation
              JOINT Head
              {
                OFFSET 6.69364 2.86102e-005 0
                CHANNELS 3 Zrotation Xrotation Yrotation
                End Site
                {
                  OFFSET 0 0 0
                }
              }
            }
          }
        }
      }
    }
  }
}
MOTION
Frames:	6
Frame Time:	0.0333333
57.1577 89.1553 9.80057 -99.0883 -73.4431 -93.3612 -164.101 35.3733 99.8836 -41.5848 11.5102 -7.86653 58.9213 -4.758 18.5337 29.1115 -3.55486 6.0165 168.762 -7.79126 87.161 -28.5092 7.95214 0.770424 66.7904 -1.01015 -0.732727 48.4553 -9.85312 -5.29228 1.6716 6.31155 -89.7206 14.2566 3.44876 0.0821159 2.59012 3.44902 -0.0699361 -19.9785 3.26447 1.11591 0.0341131 3.26447 1.1159 98.4899 -35.5408 -88.9643 25.0034 -8.53208 -56.6688 -23.6068 -7.91999 -105.303 -28.3016 -7.52977 8.55684 -102.483 -59.6649 64.016 -3.82137 -23.5166 27.7586 11.7164 -8.09326 -52.5104 19.8719 2.47519 -4.91104 -14.1185 2.86207 -5.55884 -4.13528 2.97214 5.08213 
57.8596 88.8495 11.912 -116.813 -79.7455 -109.905 -166.901 32.6369 98.8794 -41.8074 16.5555 -6.53083 60.4209 -2.36215 22.5926 28.872 -3.01849 4.75957 166.131 -7.9841 86.1936 -37.0058 7.80594 2.03217 63.4864 0.648214 1.29749 49.3856 -10.0905 -7.7401 2.03802 6.33192 -89.63 14.2177 4.21937 0.160639 2.55364 4.22234 -0.025569 -20.0321 3.9757 1.42333 -0.0194673 3.97569 1.42332 99.2501 -32.0122 -87.8635 26.5598 -3.38539 -51.9361 -19.7879 -4.96746 -97.0568 -30.5041 -8.302 8.54948 -99.8303 -58.4321 67.1205 -3.01259 -23.8352 30.2704 11.3994 -5.28849 -54.603 21.274 2.61508 -4.44642 -16.8682 -0.187172 -11.366 -3.03773 -0.26993 3.45825 
59.2142 89.1718 14.8143 157.344 -82.2701 165.393 -171.119 28.7922 96.7916 -43.1441 20.4196 -3.98121 61.3128 -0.107 22.4892 28.9544 -2.48598 4.1577 160.995 -2.69557 83.2123 -55.7876 0.302656 2.62386 52.3169 8.3593 3.94982 37.9362 -2.49561 -8.8007 1.97782 6.52054 -89.53 13.8329 4.14991 0.389011 2.16854 4.16301 0.205664 -20.413 3.84086 1.62 -0.400335 3.84087 1.62001 99.4528 -33.3031 -87.3314 16.0678 -4.52467 -41.7985 -10.344 -2.76113 -72.6234 -34.5127 -9.76563 8.81858 -96.0114 -56.3158 71.6653 -1.77283 -25.0308 29.6176 10.0288 0.289531 -57.9779 23.8497 2.8847 -3.93673 -21.7304 -2.49601 -20.1188 -0.548391 -3.48893 3.35771 
60.3353 89.6086 16.4412 122.772 -70.241 133.27 -174.401 25.0954 96.8803 -45.5305 27.631 -1.13544 62.0361 1.08573 22.3017 28.6447 -2.81442 4.00153 158.146 6.6658 83.2837 -79.5809 -11.6072 -0.762355 37.7196 16.345 11.5111 10.8649 13.7698 -4.89043 1.40813 7.04537 -89.7535 12.791 2.914 0.136874 1.12336 2.9172 0.0083747 -21.436 2.73806 1.00698 -1.42336 2.73806 1.00698 98.6874 -38.4252 -88.3322 3.72939 -14.2211 -31.4468 -5.04465 20.5105 -53.2614 -34.397 -9.93233 9.91851 -95.2668 -55.384 72.4449 -3.20794 -24.4071 25.407 8.65618 3.3263 -59.7754 25.5713 3.04903 -4.8058 -25.8759 -2.95524 -25.6565 2.64777 -5.24461 2.41891 
60.7717 89.7841 17.3275 114.477 -57.7213 129.572 -176.324 23.5251 100.276 -50.106 34.3082 1.93757 63.3352 2.62903 21.3313 28.348 -2.70286 3.23363 158.467 17.5112 84.113 -101.675 -20.9201 -5.17713 34.3335 17.2687 13.0736 17.446 8.31389 -3.16413 0.913902 7.56815 -90.3892 11.7453 1.63505 -0.945899 0.07497 1.59184 -1.01696 -22.4678 1.84374 -0.410636 -2.45515 1.84372 -0.410639 98.2842 -40.864 -88.8181 -1.31034 -28.8743 -19.7942 -3.85619 35.6953 -38.5668 -32.8521 -9.68678 11.6547 -99.1847 -56.9604 67.5227 -3.99898 -17.5726 16.8567 9.68329 5.37452 -58.9309 25.9993 3.08014 -5.12055 -29.3969 -3.19855 -27.815 6.28864 -6.75932 0.631878 
61.0782 90.5647 17.8921 107.225 -46.072 127.281 -178.76 23.5039 103.658 -53.1737 40.9902 5.70609 63.426 3.2111 20.4995 27.9225 -3.06851 2.9063 165.179 29.8896 77.7995 -113.273 -20.0718 -7.78503 35.3771 18.9248 9.53768 13.7142 12.5384 -6.08408 0.360956 7.88088 -90.9762 11.1088 0.265492 -1.96533 -0.56362 0.178749 -1.97511 -23.0885 0.843776 -1.79479 -3.07586 0.843773 -1.79479 98.4139 -44.9363 -88.2308 0.515 -31.193 -4.439 1.82406 29.7636 -33.1015 -34.1041 -10.0559 11.0941 -103.435 -58.5335 62.3677 -2.47846 -7.47814 4.40095 9.58535 5.61394 -55.7113 26.2693 3.08203 -5.80553 -31.8955 -3.47358 -29.0893 9.16397 -8.17174 -1.41709 
